<svg width="66" height="59" viewBox="0 0 66 59" fill="none" xmlns="http://www.w3.org/2000/svg">
<path fill-rule="evenodd" clip-rule="evenodd" d="M65.1638 19.2299C65.1727 19.2492 65.1727 19.2967 65.1727 19.3308L65.1861 19.4732C65.1861 19.4915 65.1842 19.5169 65.1822 19.5445C65.1798 19.5773 65.1772 19.6131 65.1772 19.6437C65.1713 19.7178 65.1588 19.7913 65.14 19.8632C65.1147 19.9689 65.0788 20.0718 65.0328 20.1702L65.009 20.2296L64.9584 20.3541L64.8572 20.5944C64.7888 20.7516 64.7188 20.9103 64.6489 21.0586C64.5075 21.3553 64.3587 21.6519 64.2099 21.9485C63.9053 22.5359 63.5833 23.1123 63.244 23.6779C62.5652 24.8028 61.8198 25.8865 61.0117 26.923C59.394 29.0057 57.5375 30.8927 55.4801 32.5457C55.0378 32.9106 54.5765 33.25 54.1147 33.5898C54.0435 33.6422 53.9723 33.6946 53.9011 33.7471C53.7084 33.8828 53.5127 34.0156 53.3167 34.1486C53.2387 34.2015 53.1606 34.2545 53.0826 34.3077C53.0356 34.3392 52.9889 34.3713 52.942 34.4034C52.8523 34.4649 52.7623 34.5266 52.6704 34.585L52.2492 34.8476C51.1282 35.5543 49.9669 36.1956 48.7713 36.7682C47.2049 37.5094 45.5894 38.1427 43.9361 38.6637C41.9568 39.3652 39.3138 39.5136 37.5101 39.4987C35.4519 39.4809 33.7717 39.0271 32.0915 38.3374C30.3723 37.6449 28.8353 36.5687 27.5987 35.1916C26.3108 33.7608 25.4468 32.0017 25.1029 30.1104C24.9338 29.1436 24.9147 28.1566 25.0464 27.1841C25.1814 26.202 25.4728 25.2477 25.9096 24.3572C26.7939 22.5597 28.2287 21.0888 30.0066 20.1569C30.8932 19.691 31.8471 19.3653 32.8341 19.1914C33.3253 19.1052 33.8217 19.0581 34.3187 19.0501V23.1675C34.045 23.1647 33.7711 23.183 33.4994 23.2226C32.9307 23.3072 32.3785 23.4788 31.8624 23.7313C31.0774 24.1117 30.3952 24.6736 29.8725 25.3702C29.3498 26.0669 29.0019 26.8779 28.8577 27.7358C28.7614 28.3193 28.7559 28.9141 28.8413 29.4993C29.033 30.7204 29.5605 31.8648 30.3652 32.8052C31.2131 33.7979 32.2775 34.5843 33.4771 35.1041C34.7154 35.6467 36.049 35.94 37.4014 35.9673H37.7154C40.3436 35.9584 44.3156 35.3044 46.347 33.5854C48.4979 31.7785 49.896 29.2377 50.2684 26.4588C50.4533 25.0625 50.3893 23.6446 50.0794 22.2704C49.7603 20.8774 49.217 19.5451 48.4707 18.3252C47.7136 17.0879 46.7796 15.9672 45.6981 14.9985C44.6042 14.0173 43.3871 13.1817 42.0774 12.5127C39.4073 11.1649 36.4624 10.4464 33.4696 10.4126C30.4468 10.3686 27.4489 10.9625 24.6729 12.1553C23.2802 12.749 21.9539 13.4867 20.7157 14.3563C19.4738 15.2302 18.3266 16.2308 17.2929 17.3419C15.2125 19.5787 13.6391 22.2353 12.6795 25.1314C11.72 28.0453 11.3869 31.1279 11.7017 34.1786C12.0236 37.2516 12.9398 40.2333 14.3998 42.9589C15.1272 44.3275 15.9737 45.6298 16.9298 46.8507C17.8913 48.0725 18.952 49.2134 20.1011 50.262C22.4128 52.3726 25.0313 54.1227 27.868 55.453C30.7146 56.7922 33.7289 57.744 36.83 58.2829C33.7015 57.8274 30.6487 56.9549 27.7534 55.6889C24.845 54.4193 22.1457 52.7193 19.7469 50.6461C18.5456 49.6059 17.4317 48.4695 16.4163 47.2482C15.3996 46.021 14.4928 44.7074 13.7063 43.3223C12.1142 40.5357 11.0797 37.4677 10.66 34.2884C10.2403 31.0836 10.5025 27.8266 11.4294 24.7295C12.3674 21.6141 13.9655 18.7357 16.1157 16.2888C18.2829 13.823 20.9467 11.8395 23.9338 10.4673C26.9209 9.0951 30.1644 8.36492 33.4532 8.32427C36.7855 8.27292 40.0851 8.9859 43.0968 10.4081C46.1089 11.8453 48.8025 14.0611 50.6583 16.934C51.5938 18.3754 52.2893 19.9581 52.718 21.6208C53.1465 23.3054 53.2729 25.0522 53.0915 26.7807C52.957 28.0463 52.6517 29.288 52.1837 30.4722C52.5513 30.2231 52.9159 29.9724 53.2686 29.7025C55.1757 28.2888 56.9103 26.6576 58.4371 24.8422C59.2037 23.935 59.9153 22.9831 60.5682 21.9916C60.8971 21.4962 61.1948 20.9919 61.4924 20.4802C61.6353 20.2251 61.7752 19.967 61.9076 19.7105L62.0758 19.3693C62.0673 19.3524 62.0587 19.3352 62.05 19.3178C62.0192 19.2558 61.9871 19.1912 61.9523 19.1276C61.7886 18.8191 61.5981 18.4987 61.3987 18.1828C60.9968 17.5495 60.5534 16.9236 60.0875 16.3096C59.1464 15.0778 58.13 13.9048 57.0442 12.7975C54.8633 10.5639 52.4274 8.5927 49.7862 6.92417C47.1408 5.25163 44.2857 3.9341 41.2946 3.00567C38.2895 2.08 35.1705 1.57241 32.0261 1.4973C31.6322 1.48249 31.2413 1.48986 30.8489 1.49727L30.8474 1.4973C30.7364 1.49939 30.6252 1.49995 30.514 1.50051C30.2318 1.50192 29.9495 1.50333 29.6687 1.52993L28.4916 1.61002C28.3385 1.61695 28.1863 1.6365 28.0343 1.65602C27.9913 1.66155 27.9482 1.66707 27.9052 1.67231L27.3189 1.74647C26.76 1.80132 26.2087 1.90418 25.6574 2.00704C25.4336 2.04881 25.2097 2.09057 24.9854 2.12912C24.7455 2.18174 24.5062 2.23895 24.2671 2.29611C24.122 2.33079 23.977 2.36545 23.832 2.39906C23.7561 2.41783 23.6799 2.43568 23.6038 2.45352C23.4874 2.48077 23.3712 2.508 23.2561 2.53847L22.6861 2.70459C21.1604 3.1406 19.6684 3.68584 18.2215 4.33606C16.7654 4.97849 15.3531 5.71522 13.9935 6.54151C13.306 6.94345 12.6423 7.38098 11.977 7.82593L10.9933 8.51559C10.7782 8.66732 10.5683 8.82614 10.358 8.98526C10.2497 9.06723 10.1413 9.14928 10.032 9.23048C8.76202 10.1955 7.54021 11.2243 6.36652 12.3169C5.19282 13.4095 4.07221 14.554 3.00467 15.7504C2.4719 16.3481 1.94954 16.9548 1.44802 17.5851C0.946495 18.2154 0.455389 18.8517 0 19.5132C0.43009 18.8309 0.894408 18.1798 1.37361 17.5332C1.85281 16.8865 2.34987 16.2562 2.86181 15.6347C3.88767 14.3948 4.96761 13.2029 6.10162 12.0589C7.23563 10.9148 8.42619 9.8272 9.6733 8.79591C9.77426 8.71436 9.87477 8.63205 9.97531 8.5497C10.1874 8.37596 10.3997 8.20209 10.6168 8.03505L11.5827 7.29347C12.2404 6.82183 12.8967 6.35315 13.5798 5.90821C14.9362 5.01199 16.3495 4.20445 17.8108 3.49066C19.2735 2.76551 20.787 2.14689 22.3394 1.63968L22.9212 1.44539C23.0369 1.41124 23.1516 1.37955 23.2655 1.34805C23.3495 1.32483 23.4332 1.30171 23.5165 1.27779C23.6743 1.23511 23.831 1.19128 23.9872 1.14757C24.2273 1.08039 24.4664 1.0135 24.7071 0.951497C24.9334 0.903294 25.1593 0.85201 25.3853 0.800694C25.9592 0.670431 26.534 0.539953 27.118 0.459089L27.7266 0.358235C27.7814 0.349804 27.8362 0.34072 27.891 0.331632C28.0387 0.307147 28.1866 0.282627 28.3353 0.270728L29.5631 0.138727C29.9423 0.0890681 30.3254 0.0740484 30.7076 0.0590649C30.7364 0.0579382 30.7651 0.0568116 30.7938 0.0556705C30.938 0.0499444 31.0825 0.0418432 31.2271 0.0337395C31.4944 0.0187541 31.7619 0.00376016 32.0275 0.00376016C35.3289 -0.0439358 38.621 0.362321 41.811 1.21105C45.0101 2.06745 48.0819 3.34059 50.947 4.99755C53.8171 6.65833 56.4814 8.64953 58.8851 10.9302C60.0948 12.0716 61.233 13.2861 62.2931 14.5669C62.8243 15.2135 63.3363 15.878 63.8229 16.5825C64.0655 16.9355 64.3021 17.2974 64.5313 17.6889C64.6459 17.8802 64.7575 18.0879 64.8706 18.3252C64.936 18.4609 64.9941 18.6001 65.0447 18.742C65.0844 18.8528 65.1162 18.9663 65.14 19.0816C65.1489 19.132 65.1564 19.1825 65.1638 19.2299Z" fill="white"/>
</svg>
